<svg width="118" height="110" viewBox="0 0 118 110" fill="none" xmlns="http://www.w3.org/2000/svg">
<path d="M18.0909 94H6.27273L40.4545 0.909088H52.0909L86.2727 94H74.4545L46.6364 15.6364H45.9091L18.0909 94ZM22.4545 57.6364H70.0909V67.6364H22.4545V57.6364Z" fill="#F0EDEE"/>
<path d="M94.9091 40C93.9091 36.9394 92.5909 34.197 90.9545 31.7727C89.3485 29.3182 87.4242 27.2273 85.1818 25.5C82.9697 23.7727 80.4545 22.4545 77.6364 21.5454C74.8182 20.6364 71.7273 20.1818 68.3636 20.1818C62.8485 20.1818 57.8333 21.6061 53.3182 24.4545C48.803 27.303 45.2121 31.5 42.5455 37.0455C39.8788 42.5909 38.5455 49.3939 38.5455 57.4545C38.5455 65.5151 39.8939 72.3182 42.5909 77.8636C45.2879 83.4091 48.9394 87.6061 53.5455 90.4545C58.1515 93.303 63.3333 94.7273 69.0909 94.7273C74.4242 94.7273 79.1212 93.5909 83.1818 91.3182C87.2727 89.0152 90.4545 85.7727 92.7273 81.5909C95.0303 77.3788 96.1818 72.4242 96.1818 66.7273L99.6364 67.4545H71.6364V57.4545H107.091V67.4545C107.091 75.1212 105.455 81.7879 102.182 87.4545C98.9394 93.1212 94.4545 97.5152 88.7273 100.636C83.0303 103.727 76.4849 105.273 69.0909 105.273C60.8485 105.273 53.6061 103.333 47.3636 99.4545C41.1515 95.5758 36.303 90.0606 32.8182 82.9091C29.3636 75.7576 27.6364 67.2727 27.6364 57.4545C27.6364 50.0909 28.6212 43.4697 30.5909 37.5909C32.5909 31.6818 35.4091 26.6515 39.0455 22.5C42.6818 18.3485 46.9848 15.1667 51.9545 12.9545C56.9242 10.7424 62.3939 9.63636 68.3636 9.63636C73.2727 9.63636 77.8485 10.3788 82.0909 11.8636C86.3636 13.3182 90.1667 15.3939 93.5 18.0909C96.8636 20.7576 99.6667 23.9545 101.909 27.6818C104.152 31.3788 105.697 35.4848 106.545 40H94.9091Z" fill="#F0EDEE"/>
<line y1="109.5" x2="118" y2="109.5" stroke="#AB87FF"/>
</svg>
