<svg width="251" height="60" viewBox="0 0 251 60" fill="none" xmlns="http://www.w3.org/2000/svg">
<path d="M9.972 27H1.26V24.84H3.168V3.96H1.26V1.8H9.36C10.488 1.8 11.532 1.92 12.492 2.16C13.452 2.4 14.268 2.772 14.94 3.276C15.612 3.78 16.128 4.44 16.488 5.256C16.872 6.048 17.064 6.996 17.064 8.1C17.064 9.588 16.704 10.896 15.984 12.024C15.264 13.152 14.172 13.92 12.708 14.328C13.38 14.472 14.04 14.712 14.688 15.048C15.336 15.384 15.912 15.816 16.416 16.344C16.872 16.872 17.244 17.484 17.532 18.18C17.82 18.876 17.964 19.656 17.964 20.52C17.964 21.6 17.736 22.548 17.28 23.364C16.848 24.156 16.272 24.816 15.552 25.344C14.784 25.896 13.92 26.316 12.96 26.604C12 26.868 11.004 27 9.972 27ZM5.436 15.408V24.84H9.792C10.608 24.84 11.364 24.744 12.06 24.552C12.78 24.36 13.416 24.06 13.968 23.652C14.496 23.292 14.916 22.824 15.228 22.248C15.54 21.672 15.696 21 15.696 20.232C15.696 19.392 15.516 18.672 15.156 18.072C14.796 17.448 14.328 16.944 13.752 16.56C13.128 16.176 12.42 15.888 11.628 15.696C10.86 15.504 10.056 15.408 9.216 15.408H5.436ZM5.436 3.96V13.248H9.72C11.28 13.248 12.516 12.804 13.428 11.916C14.34 11.004 14.796 9.828 14.796 8.388C14.796 7.572 14.652 6.876 14.364 6.3C14.1 5.724 13.728 5.268 13.248 4.932C12.792 4.596 12.252 4.356 11.628 4.212C11.028 4.044 10.356 3.96 9.612 3.96H5.436ZM27.9785 27H20.4905V24.84H23.2625V15.66H20.7785V13.5H25.2065L25.3145 15.372C25.3625 15.876 25.3745 16.152 25.3505 16.2C25.3505 16.224 25.3745 16.488 25.4225 16.992C25.7105 16.392 26.0705 15.864 26.5025 15.408C26.9345 14.928 27.4025 14.532 27.9065 14.22C28.4105 13.884 28.9025 13.632 29.3825 13.464C29.8865 13.296 30.3665 13.212 30.8225 13.212L30.6785 15.444C30.0305 15.444 29.4185 15.54 28.8425 15.732C28.2665 15.9 27.7625 16.152 27.3305 16.488C26.7785 16.896 26.3345 17.412 25.9985 18.036C25.6865 18.636 25.5305 19.308 25.5305 20.052V24.84H27.9785V27ZM46.2817 23.508C45.8017 24.66 45.0217 25.584 43.9417 26.28C42.8857 26.952 41.6977 27.288 40.3777 27.288C39.0097 27.288 37.9297 26.916 37.1377 26.172C36.3457 25.428 35.9257 24.456 35.8777 23.256V15.66H33.3577V13.5H38.1457V22.356C38.1937 23.076 38.4457 23.7 38.9017 24.228C39.3817 24.732 40.1017 25.008 41.0617 25.056C41.7337 25.056 42.3697 24.948 42.9697 24.732C43.5937 24.492 44.1337 24.168 44.5897 23.76C45.0697 23.352 45.4537 22.872 45.7417 22.32C46.0297 21.744 46.1737 21.12 46.1737 20.448V15.66H43.6537V13.5H48.4417V25.056H50.8177V27H46.2457L46.2097 25.128L46.2817 23.508ZM60.8144 27H53.3264V24.84H56.0984V15.66H53.6144V13.5H58.0424L58.0784 14.292C58.1024 14.796 58.1264 15.252 58.1504 15.66C58.1744 16.044 58.2104 16.488 58.2584 16.992C58.7384 15.84 59.5064 14.928 60.5624 14.256C61.6424 13.56 62.8304 13.212 64.1264 13.212C65.5184 13.212 66.6104 13.584 67.4024 14.328C68.1944 15.072 68.6144 16.044 68.6624 17.244V24.84H71.0744V27H63.5864V24.84H66.3944V18.144C66.3464 17.424 66.0824 16.812 65.6024 16.308C65.1464 15.78 64.4384 15.492 63.4784 15.444C62.7824 15.444 62.1224 15.564 61.4984 15.804C60.8984 16.02 60.3704 16.332 59.9144 16.74C59.4344 17.148 59.0504 17.64 58.7624 18.216C58.4984 18.768 58.3664 19.38 58.3664 20.052V24.84H60.8144V27ZM80.7396 15.408C79.9476 15.408 79.2276 15.564 78.5796 15.876C77.9556 16.164 77.4156 16.572 76.9596 17.1C76.5996 17.556 76.3236 18.084 76.1316 18.684C75.9396 19.284 75.8796 19.92 75.9516 20.592C77.3196 20.064 78.6756 19.536 80.0196 19.008C81.3876 18.48 82.7556 17.964 84.1236 17.46C83.7396 16.836 83.2596 16.344 82.6836 15.984C82.1076 15.6 81.4596 15.408 80.7396 15.408ZM85.3836 25.38C84.7836 25.98 84.0876 26.448 83.2956 26.784C82.5276 27.12 81.6756 27.288 80.7396 27.288C79.7556 27.288 78.8196 27.108 77.9316 26.748C77.0676 26.364 76.3236 25.86 75.6996 25.236C75.0516 24.588 74.5356 23.844 74.1516 23.004C73.7916 22.14 73.6116 21.216 73.6116 20.232C73.6116 19.272 73.7916 18.36 74.1516 17.496C74.5356 16.632 75.0516 15.876 75.6996 15.228C76.3236 14.604 77.0676 14.112 77.9316 13.752C78.8196 13.368 79.7556 13.176 80.7396 13.176C81.4836 13.176 82.1916 13.32 82.8636 13.608C83.5356 13.896 84.1476 14.28 84.6996 14.76C85.2276 15.264 85.6836 15.852 86.0676 16.524C86.4756 17.196 86.7876 17.928 87.0036 18.72C85.2516 19.392 83.5116 20.064 81.7836 20.736C80.0556 21.384 78.3156 22.044 76.5636 22.716C76.9716 23.436 77.5356 24.012 78.2556 24.444C78.9756 24.876 79.8036 25.092 80.7396 25.092C81.3876 25.092 81.9876 24.984 82.5396 24.768C83.0916 24.528 83.5716 24.192 83.9796 23.76L85.3836 25.38ZM97.166 27H89.678V24.84H92.378V2.16H89.93V-2.14577e-06H94.646V24.84H97.166V27ZM107.186 27H99.6975V24.84H102.398V2.16H99.9495V-2.14577e-06H104.666V24.84H107.186V27ZM119.257 36H111.769V33.84H114.901C115.477 32.688 116.041 31.548 116.593 30.42C117.169 29.292 117.745 28.164 118.321 27.036C117.361 25.14 116.413 23.256 115.477 21.384C114.541 19.488 113.593 17.58 112.633 15.66H109.717V13.5H117.061V15.66H114.973C115.765 17.22 116.557 18.768 117.349 20.304C118.141 21.84 118.861 23.388 119.509 24.948C120.109 23.436 120.805 21.9 121.597 20.34C122.389 18.78 123.181 17.22 123.973 15.66H121.813V13.5H129.121V15.66H126.349C124.813 18.708 123.289 21.744 121.777 24.768C120.265 27.768 118.753 30.792 117.241 33.84H119.257V36ZM151.16 27H142.448V24.84H144.356V3.96H142.448V1.8H150.548C151.676 1.8 152.72 1.92 153.68 2.16C154.64 2.4 155.456 2.772 156.128 3.276C156.8 3.78 157.316 4.44 157.676 5.256C158.06 6.048 158.252 6.996 158.252 8.1C158.252 9.588 157.892 10.896 157.172 12.024C156.452 13.152 155.36 13.92 153.896 14.328C154.568 14.472 155.228 14.712 155.876 15.048C156.524 15.384 157.1 15.816 157.604 16.344C158.06 16.872 158.432 17.484 158.72 18.18C159.008 18.876 159.152 19.656 159.152 20.52C159.152 21.6 158.924 22.548 158.468 23.364C158.036 24.156 157.46 24.816 156.74 25.344C155.972 25.896 155.108 26.316 154.148 26.604C153.188 26.868 152.192 27 151.16 27ZM146.624 15.408V24.84H150.98C151.796 24.84 152.552 24.744 153.248 24.552C153.968 24.36 154.604 24.06 155.156 23.652C155.684 23.292 156.104 22.824 156.416 22.248C156.728 21.672 156.884 21 156.884 20.232C156.884 19.392 156.704 18.672 156.344 18.072C155.984 17.448 155.516 16.944 154.94 16.56C154.316 16.176 153.608 15.888 152.816 15.696C152.048 15.504 151.244 15.408 150.404 15.408H146.624ZM146.624 3.96V13.248H150.908C152.468 13.248 153.704 12.804 154.616 11.916C155.528 11.004 155.984 9.828 155.984 8.388C155.984 7.572 155.84 6.876 155.552 6.3C155.288 5.724 154.916 5.268 154.436 4.932C153.98 4.596 153.44 4.356 152.816 4.212C152.216 4.044 151.544 3.96 150.8 3.96H146.624ZM178.706 27H173.99V25.92C173.99 25.704 173.99 25.512 173.99 25.344C173.99 25.176 173.99 24.984 173.99 24.768C173.894 25.008 173.702 25.272 173.414 25.56C173.15 25.848 172.802 26.112 172.37 26.352C171.914 26.64 171.386 26.868 170.786 27.036C170.21 27.204 169.562 27.288 168.842 27.288C167.834 27.288 166.886 27.108 165.998 26.748C165.134 26.364 164.39 25.848 163.766 25.2C163.118 24.576 162.602 23.844 162.218 23.004C161.858 22.14 161.678 21.228 161.678 20.268C161.678 19.308 161.858 18.396 162.218 17.532C162.602 16.668 163.118 15.924 163.766 15.3C164.39 14.652 165.134 14.136 165.998 13.752C166.886 13.368 167.834 13.176 168.842 13.176C170.21 13.176 171.338 13.464 172.226 14.04C173.114 14.616 173.702 15.24 173.99 15.912C173.99 15.528 174.002 15.132 174.026 14.724C174.074 14.316 174.11 13.908 174.134 13.5H176.006V24.84H178.706V27ZM168.842 15.408C168.122 15.408 167.45 15.54 166.826 15.804C166.202 16.044 165.686 16.404 165.278 16.884C164.846 17.316 164.522 17.82 164.306 18.396C164.09 18.948 163.982 19.56 163.982 20.232C163.982 20.976 164.126 21.672 164.414 22.32C164.702 22.944 165.11 23.472 165.638 23.904C166.046 24.264 166.514 24.552 167.042 24.768C167.594 24.984 168.194 25.092 168.842 25.092C169.514 25.092 170.138 24.972 170.714 24.732C171.314 24.492 171.83 24.168 172.262 23.76C172.718 23.328 173.078 22.812 173.342 22.212C173.606 21.588 173.738 20.928 173.738 20.232C173.738 19.536 173.606 18.888 173.342 18.288C173.078 17.664 172.718 17.148 172.262 16.74C171.83 16.308 171.314 15.984 170.714 15.768C170.138 15.528 169.514 15.408 168.842 15.408ZM188.713 27H181.225V24.84H183.853V15.66H181.225V13.5H186.121V24.84H188.713V27ZM186.553 8.496C186.553 8.928 186.397 9.3 186.085 9.612C185.773 9.9 185.425 10.044 185.041 10.044C184.657 10.044 184.297 9.9 183.961 9.612C183.649 9.3 183.493 8.928 183.493 8.496C183.493 8.04 183.649 7.668 183.961 7.38C184.297 7.068 184.657 6.912 185.041 6.912C185.425 6.912 185.773 7.068 186.085 7.38C186.397 7.668 186.553 8.04 186.553 8.496ZM203.484 25.2C202.836 25.848 202.068 26.364 201.18 26.748C200.316 27.108 199.392 27.288 198.408 27.288C197.4 27.288 196.464 27.108 195.6 26.748C194.736 26.364 193.98 25.848 193.332 25.2C192.684 24.576 192.168 23.844 191.784 23.004C191.424 22.14 191.244 21.216 191.244 20.232C191.244 19.272 191.424 18.36 191.784 17.496C192.168 16.632 192.684 15.876 193.332 15.228C193.98 14.604 194.736 14.112 195.6 13.752C196.464 13.368 197.4 13.176 198.408 13.176C199.392 13.176 200.316 13.368 201.18 13.752C202.068 14.112 202.848 14.604 203.52 15.228C204.144 15.876 204.636 16.632 204.996 17.496C205.38 18.36 205.572 19.272 205.572 20.232C205.572 21.216 205.38 22.14 204.996 23.004C204.636 23.844 204.132 24.576 203.484 25.2ZM194.952 23.652C195.384 24.108 195.888 24.468 196.464 24.732C197.04 24.972 197.664 25.092 198.336 25.092C199.008 25.092 199.632 24.972 200.208 24.732C200.808 24.468 201.336 24.108 201.792 23.652C202.224 23.22 202.56 22.716 202.8 22.14C203.064 21.564 203.196 20.94 203.196 20.268C203.196 19.596 203.064 18.972 202.8 18.396C202.56 17.796 202.224 17.268 201.792 16.812C201.336 16.38 200.808 16.044 200.208 15.804C199.632 15.54 199.008 15.408 198.336 15.408C197.664 15.408 197.04 15.54 196.464 15.804C195.888 16.044 195.384 16.38 194.952 16.812C194.496 17.268 194.136 17.796 193.872 18.396C193.632 18.972 193.512 19.584 193.512 20.232C193.512 20.928 193.632 21.564 193.872 22.14C194.136 22.716 194.496 23.22 194.952 23.652ZM219.712 25.74C219.064 26.22 218.368 26.604 217.624 26.892C216.88 27.156 216.076 27.288 215.212 27.288C214.204 27.288 213.268 27.108 212.404 26.748C211.54 26.364 210.796 25.848 210.172 25.2C209.524 24.576 209.008 23.844 208.624 23.004C208.264 22.14 208.084 21.216 208.084 20.232C208.084 19.272 208.264 18.36 208.624 17.496C208.984 16.632 209.5 15.888 210.172 15.264C210.796 14.616 211.54 14.112 212.404 13.752C213.268 13.368 214.204 13.176 215.212 13.176C216.1 13.176 216.928 13.32 217.696 13.608C218.464 13.872 219.148 14.244 219.748 14.724V18.612H217.696V16.056C217.336 15.84 216.94 15.684 216.508 15.588C216.1 15.468 215.668 15.408 215.212 15.408C214.54 15.408 213.916 15.516 213.34 15.732C212.764 15.948 212.272 16.26 211.864 16.668C211.384 17.124 211.012 17.652 210.748 18.252C210.484 18.852 210.352 19.512 210.352 20.232C210.352 20.928 210.472 21.576 210.712 22.176C210.976 22.776 211.336 23.292 211.792 23.724C212.224 24.132 212.728 24.468 213.304 24.732C213.904 24.972 214.54 25.092 215.212 25.092C215.812 25.092 216.364 25.008 216.868 24.84C217.396 24.648 217.876 24.372 218.308 24.012L219.712 25.74ZM233.88 25.74C233.232 26.22 232.536 26.604 231.792 26.892C231.048 27.156 230.244 27.288 229.38 27.288C228.372 27.288 227.436 27.108 226.572 26.748C225.708 26.364 224.964 25.848 224.34 25.2C223.692 24.576 223.176 23.844 222.792 23.004C222.432 22.14 222.252 21.216 222.252 20.232C222.252 19.272 222.432 18.36 222.792 17.496C223.152 16.632 223.668 15.888 224.34 15.264C224.964 14.616 225.708 14.112 226.572 13.752C227.436 13.368 228.372 13.176 229.38 13.176C230.268 13.176 231.096 13.32 231.864 13.608C232.632 13.872 233.316 14.244 233.916 14.724V18.612H231.864V16.056C231.504 15.84 231.108 15.684 230.676 15.588C230.268 15.468 229.836 15.408 229.38 15.408C228.708 15.408 228.084 15.516 227.508 15.732C226.932 15.948 226.44 16.26 226.032 16.668C225.552 17.124 225.18 17.652 224.916 18.252C224.652 18.852 224.52 19.512 224.52 20.232C224.52 20.928 224.64 21.576 224.88 22.176C225.144 22.776 225.504 23.292 225.96 23.724C226.392 24.132 226.896 24.468 227.472 24.732C228.072 24.972 228.708 25.092 229.38 25.092C229.98 25.092 230.532 25.008 231.036 24.84C231.564 24.648 232.044 24.372 232.476 24.012L233.88 25.74ZM248.66 25.2C248.012 25.848 247.244 26.364 246.356 26.748C245.492 27.108 244.568 27.288 243.584 27.288C242.576 27.288 241.64 27.108 240.776 26.748C239.912 26.364 239.156 25.848 238.508 25.2C237.86 24.576 237.344 23.844 236.96 23.004C236.6 22.14 236.42 21.216 236.42 20.232C236.42 19.272 236.6 18.36 236.96 17.496C237.344 16.632 237.86 15.876 238.508 15.228C239.156 14.604 239.912 14.112 240.776 13.752C241.64 13.368 242.576 13.176 243.584 13.176C244.568 13.176 245.492 13.368 246.356 13.752C247.244 14.112 248.024 14.604 248.696 15.228C249.32 15.876 249.812 16.632 250.172 17.496C250.556 18.36 250.748 19.272 250.748 20.232C250.748 21.216 250.556 22.14 250.172 23.004C249.812 23.844 249.308 24.576 248.66 25.2ZM240.128 23.652C240.56 24.108 241.064 24.468 241.64 24.732C242.216 24.972 242.84 25.092 243.512 25.092C244.184 25.092 244.808 24.972 245.384 24.732C245.984 24.468 246.512 24.108 246.968 23.652C247.4 23.22 247.736 22.716 247.976 22.14C248.24 21.564 248.372 20.94 248.372 20.268C248.372 19.596 248.24 18.972 247.976 18.396C247.736 17.796 247.4 17.268 246.968 16.812C246.512 16.38 245.984 16.044 245.384 15.804C244.808 15.54 244.184 15.408 243.512 15.408C242.84 15.408 242.216 15.54 241.64 15.804C241.064 16.044 240.56 16.38 240.128 16.812C239.672 17.268 239.312 17.796 239.048 18.396C238.808 18.972 238.688 19.584 238.688 20.232C238.688 20.928 238.808 21.564 239.048 22.14C239.312 22.716 239.672 23.22 240.128 23.652Z" fill="black"/>
<path d="M159.256 54H154.84V53.352H156.664C157.848 50.52 159.04 47.704 160.24 44.904C161.44 42.104 162.64 39.28 163.84 36.432C165.04 39.28 166.232 42.104 167.416 44.904C168.616 47.704 169.808 50.52 170.992 53.352H172.84V54H168.424V53.352H170.296C169.832 52.232 169.36 51.112 168.88 49.992C168.4 48.872 167.928 47.744 167.464 46.608H160.216C159.72 47.792 159.24 48.92 158.776 49.992C158.328 51.064 157.856 52.184 157.36 53.352H159.256V54ZM163.624 38.568C163.128 39.832 162.608 41.072 162.064 42.288C161.536 43.504 161.016 44.728 160.504 45.96H167.176L164.056 38.568L163.84 37.944C163.808 38.024 163.768 38.12 163.72 38.232C163.688 38.328 163.656 38.44 163.624 38.568ZM178.944 54H174.528V53.352H176.4V45.648H174.648V45H176.928L176.976 46.272C176.976 46.512 176.976 46.688 176.976 46.8C176.992 46.912 177 47.096 177 47.352C177.192 46.952 177.424 46.6 177.696 46.296C177.968 45.976 178.288 45.712 178.656 45.504C178.992 45.28 179.344 45.112 179.712 45C180.096 44.888 180.488 44.832 180.888 44.832L180.864 45.48C180.352 45.496 179.872 45.592 179.424 45.768C178.992 45.928 178.6 46.152 178.248 46.44C177.896 46.744 177.608 47.112 177.384 47.544C177.176 47.96 177.072 48.416 177.072 48.912V53.352H178.944V54ZM193.631 60H189.215V59.352H191.279V52.776C191.279 52.584 191.279 52.4 191.279 52.224C191.295 52.032 191.303 51.84 191.303 51.648C191.159 52 190.959 52.328 190.703 52.632C190.463 52.936 190.167 53.2 189.815 53.424C189.463 53.68 189.071 53.872 188.639 54C188.207 54.128 187.743 54.192 187.247 54.192C186.591 54.192 185.975 54.072 185.399 53.832C184.839 53.576 184.351 53.24 183.935 52.824C183.503 52.408 183.167 51.92 182.927 51.36C182.687 50.784 182.567 50.168 182.567 49.512C182.567 48.872 182.687 48.272 182.927 47.712C183.167 47.136 183.503 46.632 183.935 46.2C184.351 45.784 184.839 45.456 185.399 45.216C185.975 44.96 186.591 44.832 187.247 44.832C188.223 44.832 189.071 45.088 189.791 45.6C190.527 46.096 191.047 46.728 191.351 47.496C191.351 47.08 191.359 46.664 191.375 46.248C191.407 45.832 191.423 45.416 191.423 45H193.751V45.648H191.951V59.352H193.631V60ZM187.247 45.504C186.687 45.504 186.159 45.608 185.663 45.816C185.183 46.024 184.767 46.304 184.415 46.656C184.047 47.024 183.759 47.456 183.551 47.952C183.343 48.432 183.239 48.952 183.239 49.512C183.239 50.088 183.343 50.624 183.551 51.12C183.775 51.6 184.079 52.024 184.463 52.392C184.815 52.744 185.223 53.024 185.687 53.232C186.167 53.44 186.687 53.544 187.247 53.544C187.807 53.544 188.335 53.44 188.831 53.232C189.327 53.024 189.751 52.736 190.103 52.368C190.487 51.984 190.775 51.552 190.967 51.072C191.175 50.592 191.279 50.072 191.279 49.512C191.279 48.952 191.175 48.424 190.967 47.928C190.759 47.432 190.471 47.008 190.103 46.656C189.735 46.304 189.303 46.024 188.807 45.816C188.327 45.608 187.807 45.504 187.247 45.504ZM204.074 51.648C203.754 52.416 203.234 53.032 202.514 53.496C201.81 53.944 201.01 54.168 200.114 54.168C199.25 54.168 198.562 53.92 198.05 53.424C197.554 52.928 197.29 52.28 197.258 51.48V45.648H195.434V45H197.93V51.432C197.962 51.976 198.162 52.456 198.53 52.872C198.914 53.272 199.442 53.488 200.114 53.52C200.642 53.52 201.138 53.432 201.602 53.256C202.066 53.08 202.474 52.84 202.826 52.536C203.178 52.248 203.458 51.896 203.666 51.48C203.89 51.048 204.002 50.584 204.002 50.088V45.648H202.154V45H204.674V53.4H206.45V54H204.146L204.098 52.728L204.074 51.648ZM212.553 54H208.137V53.352H210.057V45.648H208.137V45H210.729V53.352H212.553V54ZM211.017 41.904C211.017 42.08 210.953 42.232 210.825 42.36C210.697 42.472 210.553 42.528 210.393 42.528C210.217 42.528 210.065 42.472 209.937 42.36C209.809 42.232 209.745 42.08 209.745 41.904C209.745 41.728 209.809 41.576 209.937 41.448C210.065 41.32 210.217 41.256 210.393 41.256C210.553 41.256 210.697 41.32 210.825 41.448C210.953 41.576 211.017 41.728 211.017 41.904ZM219.055 54H216.343V45.672H214.231V45H216.343V39.144H217.015V45H219.919V45.672H217.015V53.352H219.055V54ZM226.27 45.456C225.614 45.456 225.006 45.608 224.446 45.912C223.902 46.2 223.446 46.584 223.078 47.064C222.726 47.528 222.478 48.056 222.334 48.648C222.206 49.24 222.23 49.848 222.406 50.472C223.59 49.992 224.774 49.52 225.958 49.056C227.142 48.576 228.326 48.096 229.51 47.616C229.206 46.976 228.766 46.456 228.19 46.056C227.614 45.656 226.974 45.456 226.27 45.456ZM229.438 52.896C229.022 53.296 228.542 53.608 227.998 53.832C227.47 54.056 226.894 54.168 226.27 54.168C225.614 54.168 224.998 54.048 224.422 53.808C223.862 53.552 223.374 53.216 222.958 52.8C222.526 52.368 222.19 51.872 221.95 51.312C221.71 50.752 221.59 50.144 221.59 49.488C221.59 48.848 221.71 48.24 221.95 47.664C222.19 47.088 222.526 46.592 222.958 46.176C223.374 45.76 223.862 45.432 224.422 45.192C224.998 44.936 225.614 44.808 226.27 44.808C226.75 44.808 227.214 44.888 227.662 45.048C228.11 45.208 228.51 45.44 228.862 45.744C229.182 46.016 229.47 46.344 229.726 46.728C229.998 47.096 230.214 47.512 230.374 47.976C229.062 48.504 227.766 49.024 226.486 49.536C225.206 50.048 223.91 50.568 222.598 51.096C222.902 51.816 223.382 52.4 224.038 52.848C224.694 53.28 225.438 53.496 226.27 53.496C226.814 53.496 227.318 53.4 227.782 53.208C228.246 53.016 228.654 52.744 229.006 52.392L229.438 52.896ZM236.937 54H234.225V45.672H232.113V45H234.225V39.144H234.897V45H237.801V45.672H234.897V53.352H236.937V54ZM250.633 54H248.233V52.872C248.233 52.648 248.233 52.432 248.233 52.224C248.249 52.016 248.257 51.8 248.257 51.576C248.113 51.928 247.913 52.264 247.657 52.584C247.401 52.888 247.097 53.152 246.745 53.376C246.393 53.632 245.993 53.832 245.545 53.976C245.113 54.104 244.649 54.168 244.153 54.168C243.497 54.168 242.881 54.048 242.305 53.808C241.745 53.552 241.257 53.208 240.841 52.776C240.409 52.36 240.073 51.872 239.833 51.312C239.593 50.752 239.473 50.144 239.473 49.488C239.473 48.848 239.593 48.24 239.833 47.664C240.073 47.088 240.409 46.592 240.841 46.176C241.257 45.76 241.745 45.432 242.305 45.192C242.881 44.936 243.497 44.808 244.153 44.808C245.129 44.808 245.977 45.064 246.697 45.576C247.417 46.072 247.929 46.688 248.233 47.424C248.249 47.024 248.265 46.624 248.281 46.224C248.297 45.824 248.313 45.416 248.329 45H248.857V53.352H250.633V54ZM244.153 45.456C243.593 45.456 243.065 45.568 242.569 45.792C242.089 46 241.665 46.288 241.297 46.656C240.945 47.024 240.665 47.456 240.457 47.952C240.249 48.432 240.145 48.944 240.145 49.488C240.145 50.064 240.249 50.6 240.457 51.096C240.681 51.592 240.985 52.016 241.369 52.368C241.721 52.72 242.137 53 242.617 53.208C243.097 53.4 243.609 53.496 244.153 53.496C244.713 53.496 245.233 53.392 245.713 53.184C246.209 52.976 246.641 52.696 247.009 52.344C247.377 51.976 247.665 51.552 247.873 51.072C248.081 50.592 248.185 50.064 248.185 49.488C248.185 48.928 248.081 48.408 247.873 47.928C247.665 47.432 247.377 47 247.009 46.632C246.641 46.264 246.209 45.976 245.713 45.768C245.233 45.56 244.713 45.456 244.153 45.456Z" fill="black"/>
<line x1="151" y1="48.5" y2="48.5" stroke="black"/>
</svg>
