<svg width="220" height="304" viewBox="0 0 220 304" fill="none" xmlns="http://www.w3.org/2000/svg">
<path d="M163.503 201.72C185.883 201.705 207.924 204.591 229.626 210.378C251.328 216.165 272.692 224.808 293.716 236.307C303.55 241.885 311.437 249.978 317.378 260.584C323.319 271.19 326.282 282.809 326.269 295.438V357.918H0.736328V295.438C0.736368 282.794 3.70652 271.176 9.64746 260.584C15.5884 249.992 23.469 241.9 33.2891 236.307C54.3131 224.778 75.6767 216.135 97.3789 210.378C119.081 204.621 141.123 201.735 163.503 201.72ZM163.503 0.894531C185.883 0.894635 205.042 9.63424 220.979 27.1133C236.917 44.5925 244.886 65.6051 244.886 90.1504C244.886 114.696 236.917 135.708 220.979 153.188C205.042 170.667 185.883 179.406 163.503 179.406C141.123 179.406 121.963 170.667 106.025 153.188C90.0879 135.708 82.1191 114.696 82.1191 90.1504C82.1192 65.6051 90.0879 44.5925 106.025 27.1133C121.963 9.63407 141.123 0.894531 163.503 0.894531Z" fill="#A37361" fill-opacity="0.25"/>
</svg>
